<svg width="84" height="84" viewBox="0 0 84 84" fill="none" xmlns="http://www.w3.org/2000/svg">
<path fill-rule="evenodd" clip-rule="evenodd" d="M42.0001 0.333408C18.9876 0.33341 0.333399 18.9876 0.333401 42.0001C0.333403 65.0126 18.9876 83.6668 42.0001 83.6668C65.0126 83.6667 83.6667 65.0126 83.6667 42.0001C83.6667 18.9876 65.0126 0.333406 42.0001 0.333408ZM33.5417 56.7084C32.9565 56.1225 32.6278 55.3282 32.6278 54.5001C32.6278 53.672 32.9565 52.8777 33.5417 52.2918L43.8334 42.0001L33.5417 31.7084C33.2347 31.4223 32.9885 31.0773 32.8177 30.694C32.6468 30.3107 32.555 29.8969 32.5476 29.4773C32.5402 29.0577 32.6174 28.6409 32.7746 28.2518C32.9317 27.8626 33.1657 27.5092 33.4624 27.2124C33.7592 26.9157 34.1126 26.6817 34.5017 26.5246C34.8909 26.3674 35.3077 26.2902 35.7272 26.2976C36.1468 26.305 36.5607 26.3969 36.944 26.5677C37.3273 26.7385 37.6723 26.9847 37.9584 27.2917L50.4584 39.7917C51.0436 40.3777 51.3723 41.172 51.3723 42.0001C51.3723 42.8282 51.0436 43.6225 50.4584 44.2084L37.9584 56.7084C37.3725 57.2936 36.5782 57.6223 35.7501 57.6223C34.9219 57.6223 34.1277 57.2936 33.5417 56.7084Z" fill="#bbb"/>
</svg>
