<svg width="84" height="84" viewBox="0 0 84 84" fill="none" xmlns="http://www.w3.org/2000/svg">
<path fill-rule="evenodd" clip-rule="evenodd" d="M41.9998 0.333408C18.9873 0.33341 0.333155 18.9876 0.333157 42.0001C0.333159 65.0126 18.9873 83.6668 41.9998 83.6668C65.0123 83.6667 83.6665 65.0126 83.6665 42.0001C83.6665 18.9876 65.0123 0.333406 41.9998 0.333408ZM33.5415 56.7084C32.9563 56.1225 32.6276 55.3282 32.6276 54.5001C32.6276 53.672 32.9563 52.8777 33.5415 52.2918L43.8332 42.0001L33.5415 31.7084C33.2345 31.4223 32.9882 31.0773 32.8174 30.694C32.6466 30.3107 32.5548 29.8969 32.5474 29.4773C32.54 29.0577 32.6171 28.6409 32.7743 28.2518C32.9315 27.8626 33.1654 27.5092 33.4622 27.2124C33.7589 26.9157 34.1124 26.6817 34.5015 26.5246C34.8906 26.3674 35.3074 26.2902 35.727 26.2976C36.1466 26.305 36.5604 26.3969 36.9437 26.5677C37.3271 26.7385 37.6721 26.9847 37.9582 27.2917L50.4582 39.7917C51.0434 40.3777 51.3721 41.172 51.3721 42.0001C51.3721 42.8282 51.0434 43.6225 50.4582 44.2084L37.9582 56.7084C37.3722 57.2936 36.578 57.6223 35.7498 57.6223C34.9217 57.6223 34.1274 57.2936 33.5415 56.7084Z" fill="url(#paint0_linear_1_122)"/>
<defs>
<linearGradient id="paint0_linear_1_122" x1="83.6665" y1="65.4235" x2="33.6167" y2="65.0025" gradientUnits="userSpaceOnUse">
<stop stop-color="#AB5BFB"/>
<stop offset="1" stop-color="#7690EA"/>
</linearGradient>
</defs>
</svg>
